<svg width="870" height="544" viewBox="0 0 870 544" fill="none" xmlns="http://www.w3.org/2000/svg">
<path d="M887.802 270.285C841.794 339.675 754.98 355.565 683.148 331.397C659.644 323.296 636.97 312.163 615.535 298.2C603.085 290.226 590.933 281.479 579.028 272.158C576.099 269.875 573.171 267.557 570.272 265.191C568.296 263.599 566.327 261.987 564.364 260.355C539.781 239.957 516.162 217.581 492.939 195.332C434.967 139.794 375.406 82.5467 304.18 56.0481C289.506 50.5915 270.522 48.0389 261.448 62.6991C253.575 75.4274 258.38 93.4482 265.042 107.102C289.754 157.675 334.61 189.607 379.507 214.161C424.403 238.716 471.96 258.611 510.989 294.512C550.017 330.413 579.813 387.474 571.83 445.072C564.95 494.709 530.588 535.036 490.635 552.612C450.684 570.176 406.125 567.729 364.594 556.324C323.064 544.907 283.638 524.99 243.557 507.823C219.391 497.461 187.799 490.294 171.764 514.006C158.222 534.041 166.006 565.645 182.497 582.319C198.988 598.994 221.307 604.579 242.604 609.591C308.727 625.164 374.85 640.734 440.974 656.3C461.257 661.066 499.69 678.747 499.69 678.747C499.69 678.747 531.62 713.583 531.114 737.973C530.607 762.013 516.396 779.586 497.397 793.898C477.379 808.978 458.011 806.169 437.648 805.022C361.338 800.713 142.565 657.728 90.0932 639.45C56.3763 627.717 19.5123 610.481 5.29445 572.565C-12.408 525.364 16.7223 468.257 56.4855 446.7C96.2389 425.131 142.327 429.909 185.654 437.169C228.982 444.428 273.739 453.667 315.915 439.873C358.091 426.08 396.733 381.115 392.573 329.734C388.948 285.027 354.805 251.339 318.874 236.491C290.747 224.864 260.822 221.702 231.276 216.468C223.075 215.028 214.903 213.412 206.812 211.421C186.089 206.301 165.875 198.648 146.497 188.588C126.162 178.053 106.843 164.977 88.8721 149.584C74.5387 137.324 61.1437 123.606 48.8409 108.589C46.9643 106.294 45.1076 103.948 43.2707 101.551C41.5236 99.2562 39.7958 96.9143 38.1082 94.5256C16.1465 63.5774 -0.0769253 25.463 4.78839 -13.8105C9.64304 -52.9788 35.5268 -85.5897 66.3446 -101.257C84.1561 -110.308 103.368 -114.36 122.817 -114.945C137.039 -115.281 151.257 -114.073 165.291 -111.339C230.233 -99.0907 289.744 -61.8779 345.949 -21.5856C402.143 18.7067 456.909 62.9334 517.998 91.6568C579.088 120.392 648.627 132.558 710.6 106.575C772.573 80.6031 823.486 9.73724 820.458 -67.7444C861.561 -26.0001 896.49 26.4701 911.958 87.781C927.427 149.092 921.211 219.887 887.802 270.285Z" fill="#80C1EF"/>
</svg>
